<svg width="389" height="463" viewBox="0 0 389 463" fill="none" xmlns="http://www.w3.org/2000/svg">
<g clip-path="url(#clip0_221_652)">
<path opacity="0.18" d="M379.315 441.758C366.784 443.309 354.238 444.661 341.678 445.814C341.809 446.114 341.959 446.405 342.127 446.683C343.454 448.792 346.136 449.203 348.333 450.188C350.529 451.173 352.602 454.027 351.153 456.051C350.428 457.059 349.159 457.339 347.992 457.548L335.023 459.875C319.235 462.698 302.562 465.443 287.593 459.355C281.402 456.827 280.967 453.019 283.127 449.808C202.88 453.531 122.263 450.692 41.9069 447.846C35.3827 447.846 28.0902 445.977 26.3431 438.935C67.7499 419.027 107.91 418.895 152.738 417.623L310.391 413.14C313.095 413.063 315.98 413.039 318.285 414.56C320.59 416.08 321.91 418.988 323.845 421.136C329.645 427.604 339.344 426.231 347.688 425.572C359.865 424.628 372.096 426.292 383.665 430.466C385.26 431.04 386.97 431.777 387.782 433.351C389.986 437.655 383.868 441.184 379.315 441.758Z" fill="#1D2741"/>
<path opacity="0.18" d="M168.476 1.58988C147.301 6.32845 128.707 19.8307 112.549 35.233C96.3911 50.6353 82.1032 68.1704 65.6768 83.2314C40.2253 106.591 7.58991 127.499 1.15998 162.701C-4.01587 190.947 9.95311 219.169 10.5838 247.942C10.9897 269.703 3.81314 290.829 2.24009 312.544C0.725031 333.934 5.26295 356.595 18.391 372.812C37.1154 395.954 69.1346 401.375 97.4785 397.017C125.822 392.658 152.484 380.265 180.43 373.696C214.094 365.778 249.064 366.421 283.367 370.33C304.345 372.727 326.267 376.201 345.991 368.182C363.505 361.062 377.351 345.063 384.02 326.303C390.689 307.542 390.443 286.393 384.745 267.291C376.865 240.838 359.373 218.99 348.231 193.917C338.75 172.597 334.001 149.292 328.782 126.352C325.324 111.159 321.352 95.423 311.776 83.6114C300.793 70.0549 284.229 63.7265 269.499 55.1179C233.95 34.3334 214.972 -8.80242 168.476 1.58988Z" fill="#68E1FD"/>
<path d="M86.7932 28.2996H212.47V443.022H86.7932C80.7217 443.022 74.8989 440.442 70.6057 435.849C66.3125 431.255 63.9006 425.026 63.9006 418.53V52.7913C63.9006 46.2957 66.3125 40.0662 70.6057 35.4731C74.8989 30.88 80.7217 28.2996 86.7932 28.2996Z" fill="#68E1FD"/>
<path d="M86.7932 28.2996H212.47V443.022H86.7932C80.7217 443.022 74.8989 440.442 70.6057 435.849C66.3125 431.255 63.9006 425.026 63.9006 418.53V52.7913C63.9006 46.2957 66.3125 40.0662 70.6057 35.4731C74.8989 30.88 80.7217 28.2996 86.7932 28.2996Z" fill="url(#paint0_linear_221_652)"/>
<path d="M266.346 28.2996H100.711C85.7822 28.2996 73.6797 41.2476 73.6797 57.2197V414.102C73.6797 430.074 85.7822 443.022 100.711 443.022H266.346C281.275 443.022 293.377 430.074 293.377 414.102V57.2197C293.377 41.2476 281.275 28.2996 266.346 28.2996Z" fill="#68E1FD"/>
<path d="M283.729 53.1946V398.157C283.728 400.081 283.373 401.985 282.684 403.762C281.995 405.539 280.985 407.154 279.713 408.514C278.441 409.873 276.931 410.952 275.269 411.687C273.607 412.422 271.826 412.8 270.028 412.799H97.0144C93.3846 412.799 89.9034 411.256 87.3367 408.51C84.7701 405.764 83.3281 402.04 83.3281 398.157V53.1946C83.3281 49.3092 84.7708 45.5829 87.3389 42.8355C89.9069 40.088 93.3899 38.5446 97.0216 38.5446H131.23V43.1513C131.23 47.0593 132.681 50.8073 135.264 53.5708C137.847 56.3342 141.35 57.8866 145.003 57.8866H221.771C225.424 57.8866 228.927 56.3342 231.51 53.5708C234.093 50.8073 235.544 47.0593 235.544 43.1513V38.5446H270.021C271.82 38.5435 273.602 38.9217 275.264 39.6573C276.927 40.393 278.438 41.4719 279.711 42.8322C280.984 44.1926 281.994 45.8079 282.683 47.5859C283.373 49.3639 283.728 51.2697 283.729 53.1946Z" fill="white"/>
<path d="M203.344 39.8242H163.72C162.708 39.8242 161.886 40.7027 161.886 41.7863V42.1353C161.886 43.219 162.708 44.0975 163.72 44.0975H203.344C204.357 44.0975 205.178 43.219 205.178 42.1353V41.7863C205.178 40.7027 204.357 39.8242 203.344 39.8242Z" fill="url(#paint1_linear_221_652)"/>
<path d="M268.752 38.5446V350.375C268.752 357.383 266.15 364.104 261.519 369.059C256.887 374.014 250.605 376.798 244.055 376.798H83.3281V53.1946C83.3272 51.2704 83.6807 49.3649 84.3685 47.5871C85.0564 45.8092 86.065 44.1938 87.3367 42.8332C88.6085 41.4726 90.1184 40.3935 91.7802 39.6576C93.442 38.9218 95.2231 38.5435 97.0216 38.5446H131.23V43.1513C131.23 47.0593 132.681 50.8073 135.264 53.5708C137.847 56.3342 141.35 57.8866 145.003 57.8866H221.771C225.424 57.8866 228.927 56.3342 231.51 53.5708C234.093 50.8073 235.544 47.0593 235.544 43.1513V38.5446H268.752Z" fill="#EBEBF0"/>
<path d="M326.274 176.064H122.894C115.559 176.064 109.613 182.425 109.613 190.272V243.854C109.613 251.701 115.559 258.062 122.894 258.062H326.274C333.608 258.062 339.554 251.701 339.554 243.854V190.272C339.554 182.425 333.608 176.064 326.274 176.064Z" fill="#68E1FD"/>
<path d="M326.274 176.064H122.894C115.559 176.064 109.613 182.425 109.613 190.272V243.854C109.613 251.701 115.559 258.062 122.894 258.062H326.274C333.608 258.062 339.554 251.701 339.554 243.854V190.272C339.554 182.425 333.608 176.064 326.274 176.064Z" fill="url(#paint2_linear_221_652)"/>
<path d="M330.261 170.938H126.881C119.546 170.938 113.6 177.299 113.6 185.146V238.728C113.6 246.575 119.546 252.936 126.881 252.936H330.261C337.595 252.936 343.541 246.575 343.541 238.728V185.146C343.541 177.299 337.595 170.938 330.261 170.938Z" fill="white"/>
<path d="M103.8 79.7492H138.189V116.541H103.8V79.7492Z" fill="white"/>
<path d="M169.165 185.976H134.376C130.577 185.976 127.497 189.271 127.497 193.335V230.554C127.497 234.619 130.577 237.914 134.376 237.914H169.165C172.964 237.914 176.044 234.619 176.044 230.554V193.335C176.044 189.271 172.964 185.976 169.165 185.976Z" fill="#EBEBF0"/>
<path d="M103.8 125.344H138.189V162.135H103.8V125.344ZM103.8 270.332H138.189V307.123H103.8V270.332ZM103.8 315.926H138.189V352.718H103.8V315.926Z" fill="white"/>
<path opacity="0.38" d="M176.037 223.644V230.546C176.037 231.513 175.859 232.47 175.513 233.363C175.167 234.256 174.661 235.067 174.022 235.75C173.383 236.434 172.625 236.976 171.79 237.346C170.955 237.716 170.061 237.906 169.157 237.906H134.362C133.458 237.906 132.564 237.716 131.729 237.346C130.894 236.976 130.136 236.434 129.497 235.75C128.858 235.067 128.352 234.256 128.006 233.363C127.66 232.47 127.482 231.513 127.482 230.546V223.644C133.273 219.515 139.836 216.789 146.714 215.656C144.724 214.46 143.162 212.59 142.275 210.34C141.387 208.09 141.224 205.588 141.812 203.229C142.399 200.869 143.703 198.785 145.519 197.306C147.335 195.826 149.559 195.035 151.842 195.056C154.124 195.078 156.335 195.911 158.127 197.424C159.918 198.937 161.188 201.045 161.736 203.416C162.285 205.786 162.081 208.284 161.157 210.517C160.232 212.75 158.64 214.59 156.631 215.749C166.917 217.517 176.037 223.644 176.037 223.644Z" fill="white"/>
<path d="M326.353 195.057H195.145C194.568 195.057 194.015 194.812 193.607 194.376C193.2 193.939 192.97 193.348 192.97 192.731C192.97 192.114 193.2 191.522 193.607 191.085C194.015 190.649 194.568 190.404 195.145 190.404H326.353C326.93 190.404 327.483 190.649 327.891 191.085C328.299 191.522 328.528 192.114 328.528 192.731C328.528 193.348 328.299 193.939 327.891 194.376C327.483 194.812 326.93 195.057 326.353 195.057Z" fill="#EBEBF0"/>
<path d="M273.935 89.3583H151.02C149.883 89.3583 148.961 90.3427 148.961 91.5569C148.961 92.7712 149.883 93.7556 151.02 93.7556H273.935C275.072 93.7556 275.994 92.7712 275.994 91.5569C275.994 90.3427 275.072 89.3583 273.935 89.3583Z" fill="white"/>
<path d="M273.928 108.413H151.013C150.467 108.413 149.943 108.181 149.557 107.768C149.171 107.355 148.954 106.795 148.954 106.211C148.956 105.628 149.174 105.07 149.56 104.658C149.946 104.247 150.468 104.016 151.013 104.016H273.928C274.473 104.016 274.996 104.247 275.381 104.658C275.767 105.07 275.985 105.628 275.987 106.211C275.987 106.795 275.77 107.355 275.384 107.768C274.998 108.181 274.474 108.413 273.928 108.413ZM273.928 138.047H151.013C150.467 138.047 149.943 137.815 149.557 137.402C149.171 136.989 148.954 136.428 148.954 135.844C148.956 135.262 149.174 134.703 149.56 134.292C149.946 133.881 150.468 133.65 151.013 133.65H273.928C274.473 133.65 274.996 133.881 275.381 134.292C275.767 134.703 275.985 135.262 275.987 135.844C275.987 136.428 275.77 136.989 275.384 137.402C274.998 137.815 274.474 138.047 273.928 138.047ZM273.928 150.494H151.013C150.467 150.494 149.943 150.262 149.557 149.849C149.171 149.436 148.954 148.876 148.954 148.292C148.956 147.709 149.174 147.151 149.56 146.739C149.946 146.328 150.468 146.097 151.013 146.097H273.928C274.473 146.097 274.996 146.328 275.381 146.739C275.767 147.151 275.985 147.709 275.987 148.292C275.987 148.876 275.77 149.436 275.384 149.849C274.998 150.262 274.474 150.494 273.928 150.494ZM273.928 284.695H151.013C150.467 284.695 149.943 284.463 149.557 284.049C149.171 283.636 148.954 283.076 148.954 282.492C148.954 281.908 149.171 281.348 149.557 280.935C149.943 280.522 150.467 280.289 151.013 280.289H273.928C274.474 280.289 274.998 280.522 275.384 280.935C275.77 281.348 275.987 281.908 275.987 282.492C275.987 283.076 275.77 283.636 275.384 284.049C274.998 284.463 274.474 284.695 273.928 284.695ZM273.928 297.165H151.013C150.467 297.165 149.943 296.933 149.557 296.52C149.171 296.107 148.954 295.547 148.954 294.963C148.954 294.379 149.171 293.818 149.557 293.405C149.943 292.992 150.467 292.76 151.013 292.76H273.928C274.474 292.76 274.998 292.992 275.384 293.405C275.77 293.818 275.987 294.379 275.987 294.963C275.987 295.547 275.77 296.107 275.384 296.52C274.998 296.933 274.474 297.165 273.928 297.165ZM273.928 330.289H151.013C150.467 330.289 149.943 330.057 149.557 329.644C149.171 329.231 148.954 328.67 148.954 328.086C148.954 327.502 149.171 326.942 149.557 326.529C149.943 326.116 150.467 325.884 151.013 325.884H273.928C274.474 325.884 274.998 326.116 275.384 326.529C275.77 326.942 275.987 327.502 275.987 328.086C275.987 328.67 275.77 329.231 275.384 329.644C274.998 330.057 274.474 330.289 273.928 330.289ZM273.928 342.791H151.013C150.467 342.791 149.943 342.559 149.557 342.145C149.171 341.732 148.954 341.172 148.954 340.588C148.954 340.004 149.171 339.444 149.557 339.031C149.943 338.618 150.467 338.386 151.013 338.386H273.928C274.474 338.386 274.998 338.618 275.384 339.031C275.77 339.444 275.987 340.004 275.987 340.588C275.987 341.172 275.77 341.732 275.384 342.145C274.998 342.559 274.474 342.791 273.928 342.791Z" fill="white"/>
<path d="M326.353 210.017H195.145C194.568 210.017 194.015 209.772 193.607 209.336C193.2 208.9 192.97 208.308 192.97 207.691C192.97 207.074 193.2 206.482 193.607 206.046C194.015 205.609 194.568 205.364 195.145 205.364H326.353C326.93 205.364 327.483 205.609 327.891 206.046C328.299 206.482 328.528 207.074 328.528 207.691C328.528 208.308 328.299 208.9 327.891 209.336C327.483 209.772 326.93 210.017 326.353 210.017ZM326.353 224.985H195.145C194.568 224.985 194.015 224.74 193.607 224.304C193.2 223.868 192.97 223.276 192.97 222.659C192.97 222.042 193.2 221.45 193.607 221.014C194.015 220.577 194.568 220.332 195.145 220.332H326.353C326.93 220.332 327.483 220.577 327.891 221.014C328.299 221.45 328.528 222.042 328.528 222.659C328.528 223.276 328.299 223.868 327.891 224.304C327.483 224.74 326.93 224.985 326.353 224.985Z" fill="#EBEBF0"/>
<path d="M301.395 326.388L293.138 390.758C292.788 393.466 293.052 396.224 293.907 398.8L308.658 445.333L317.285 442.487L310.761 396.21C310.623 395.257 310.68 394.283 310.927 393.356L322.134 351.965L327.006 445.333H334.98L341.845 353.144C344.172 337.757 339.916 326.388 339.916 326.388H301.395Z" fill="#3F3D56"/>
<path d="M343.744 269.664V313.871C343.744 319.299 342.918 323.681 337.85 323.681H302.475C297.401 323.681 297.241 319.33 297.205 313.94L296.922 283.849C296.922 283.849 289.289 298.437 283.2 297.033C277.11 295.63 259.046 268.974 259.046 268.974L268.035 260.885L283.2 277.172C283.2 277.172 285.628 271.247 289.173 257.985C292.718 244.723 304.229 244.661 304.229 244.661H334.994C346.1 244.622 343.744 269.664 343.744 269.664Z" fill="#68E1FD"/>
<path d="M343.541 224.985C343.541 224.985 354.77 249.64 355.364 258.07C355.959 266.5 343.947 277.955 343.947 277.955L334.994 244.607H343.541V224.985Z" fill="#68E1FD"/>
<path d="M343.541 224.985C343.541 224.985 354.77 249.64 355.364 258.07C355.959 266.5 343.947 277.955 343.947 277.955L334.994 244.607H343.541V224.985Z" fill="url(#paint3_linear_221_652)"/>
<path d="M343.947 277.955C343.947 277.955 351.269 256.426 350.471 251.47C349.674 246.515 343.541 230.911 343.541 230.911V244.622L332.74 244.863L343.947 277.955Z" fill="#68E1FD"/>
<path d="M301.395 323.379H339.931V326.388H301.395V323.379Z" fill="url(#paint4_linear_221_652)"/>
<path d="M314.523 214.609H325.643V244.863H314.523V214.609Z" fill="url(#paint5_linear_221_652)"/>
<path d="M325.672 211.289V244.863H319.808V242.815C319.808 242.22 319.698 241.63 319.485 241.08C319.271 240.53 318.959 240.031 318.565 239.61C318.171 239.189 317.704 238.856 317.189 238.629C316.675 238.401 316.123 238.285 315.567 238.286H315.233C313.846 238.292 312.47 238.005 311.187 237.441C309.903 236.877 308.736 236.047 307.752 235C306.769 233.952 305.989 232.707 305.456 231.336C304.924 229.965 304.65 228.494 304.65 227.01V211.289H325.672Z" fill="url(#paint6_linear_221_652)"/>
<path d="M307.47 201.037C309.811 199.61 312.631 199.486 315.335 199.4L321.091 199.222C322.366 199.138 323.645 199.19 324.911 199.377C326.301 199.628 327.621 200.209 328.773 201.078C329.925 201.947 330.881 203.082 331.569 204.399C332.257 205.715 332.66 207.18 332.748 208.685C332.837 210.191 332.608 211.698 332.08 213.096C331.854 213.583 331.709 214.108 331.653 214.647C331.653 215.508 332.174 216.253 332.45 217.059C333.247 219.347 331.95 221.844 330.5 223.737C329.05 225.629 327.332 227.552 327.122 229.988C327.057 230.763 327.122 231.694 326.636 232.314C326.33 232.619 325.936 232.802 325.519 232.833C325.102 232.864 324.688 232.741 324.345 232.485C323.675 231.954 323.129 231.264 322.751 230.469C322.809 231.616 321.301 232.252 320.358 231.717C319.913 231.389 319.538 230.964 319.258 230.469C318.978 229.974 318.8 229.422 318.735 228.848C318.605 227.701 318.275 226.591 317.763 225.575C317.27 224.799 316.487 224.249 316.226 223.365C315.77 221.813 317.205 220.076 316.661 218.533C316.212 217.276 314.595 216.904 313.436 217.439C312.324 218.088 311.395 219.045 310.746 220.208C311.812 218.657 310.935 215.997 309.833 214.74C308.028 212.678 305.309 214.423 303.802 212.941C300.924 210.095 304.918 202.588 307.47 201.037Z" fill="#3F3D56"/>
<path d="M323.157 244.801C323.157 244.801 318.843 250.842 312.863 250.842C306.882 250.842 289.427 269.114 288.289 274.644C287.15 280.173 283.214 277.133 283.214 277.133C283.214 277.133 285.643 271.208 289.187 257.946C292.732 244.684 304.244 244.622 304.244 244.622H319.873L323.157 244.801Z" fill="url(#paint7_linear_221_652)"/>
<path d="M317.285 441.719L320.329 449.707L308.05 455.911L296.676 456.796C296.676 456.796 294.733 448.8 300.047 448.086C303.145 447.712 306.102 446.489 308.629 444.534L317.285 441.719ZM327.028 445.333C325.487 446.011 324.148 447.124 323.152 448.553C322.156 449.981 321.542 451.672 321.373 453.445L321.054 456.819H334.994V445.333H327.028Z" fill="#222A72"/>
<path d="M268.035 260.87L262.17 253.114C262.17 253.114 260.169 244.839 259.046 249.966C258.415 252.843 256.625 258.047 256.625 258.047H247.636C247.636 258.047 253.942 265.174 256.625 266.477C257.85 267.055 259.142 267.454 260.467 267.664L268.035 260.87Z" fill="url(#paint8_linear_221_652)"/>
</g>
<defs>
<linearGradient id="paint0_linear_221_652" x1="-42.2766" y1="510.921" x2="296.56" y2="72.9527" gradientUnits="userSpaceOnUse">
<stop stop-opacity="0"/>
<stop offset="0.85" stop-opacity="0.51"/>
<stop offset="0.99"/>
</linearGradient>
<linearGradient id="paint1_linear_221_652" x1="183.373" y1="30.9055" x2="184.559" y2="103.122" gradientUnits="userSpaceOnUse">
<stop stop-color="#183866"/>
<stop offset="1" stop-color="#1A7FC1"/>
</linearGradient>
<linearGradient id="paint2_linear_221_652" x1="103.778" y1="495.224" x2="242.853" y2="215.447" gradientUnits="userSpaceOnUse">
<stop stop-opacity="0"/>
<stop offset="0.85" stop-opacity="0.51"/>
<stop offset="0.99"/>
</linearGradient>
<linearGradient id="paint3_linear_221_652" x1="310.203" y1="308.147" x2="371.59" y2="220.205" gradientUnits="userSpaceOnUse">
<stop stop-opacity="0"/>
<stop offset="0.85" stop-opacity="0.51"/>
<stop offset="0.99"/>
</linearGradient>
<linearGradient id="paint4_linear_221_652" x1="301.395" y1="324.883" x2="339.931" y2="324.883" gradientUnits="userSpaceOnUse">
<stop stop-color="#68E1FD"/>
<stop offset="1" stop-color="#69B9EB"/>
</linearGradient>
<linearGradient id="paint5_linear_221_652" x1="316.654" y1="229.802" x2="334.915" y2="229.49" gradientUnits="userSpaceOnUse">
<stop stop-color="#ECC4D7"/>
<stop offset="0.42" stop-color="#EFD4D1"/>
<stop offset="1" stop-color="#F2EAC9"/>
</linearGradient>
<linearGradient id="paint6_linear_221_652" x1="317.713" y1="226.63" x2="313.843" y2="228.546" gradientUnits="userSpaceOnUse">
<stop stop-color="#ECC4D7"/>
<stop offset="0.42" stop-color="#EFD4D1"/>
<stop offset="1" stop-color="#F2EAC9"/>
</linearGradient>
<linearGradient id="paint7_linear_221_652" x1="284.664" y1="239.449" x2="326.005" y2="281.422" gradientUnits="userSpaceOnUse">
<stop offset="0.02" stop-color="#68E1FD"/>
<stop offset="1" stop-color="white"/>
</linearGradient>
<linearGradient id="paint8_linear_221_652" x1="247.636" y1="258" x2="268.035" y2="258" gradientUnits="userSpaceOnUse">
<stop stop-color="#ECC4D7"/>
<stop offset="0.42" stop-color="#EFD4D1"/>
<stop offset="1" stop-color="#F2EAC9"/>
</linearGradient>
<clipPath id="clip0_221_652">
<rect width="389" height="463" fill="white"/>
</clipPath>
</defs>
</svg>
