<svg width="2637" height="895" viewBox="0 0 2637 895" fill="none" xmlns="http://www.w3.org/2000/svg">
<path d="M248 270.5C260.667 270.5 272.5 272.333 283.5 276C294.833 279.333 304.833 284.167 313.5 290.5C322.5 296.5 330 303.833 336 312.5C342.333 320.833 347 329.833 350 339.5C353.667 352.5 353 363.167 348 371.5C343.333 379.833 336.833 385.5 328.5 388.5C320.5 391.5 312 391.5 303 388.5C294 385.167 287.333 378.5 283 368.5C278.667 359.833 273.667 353 268 348C262.333 343 255.667 340.167 248 339.5C245 339.167 241.333 339.667 237 341C233 342 229 343.833 225 346.5C221.333 348.833 218 352.167 215 356.5C212.333 360.5 211 365.167 211 370.5C211 379.833 214.167 389.833 220.5 400.5C227.167 410.833 235.333 421.167 245 431.5L251 438C258.667 446.667 266.333 455.5 274 464.5C281.667 473.5 288.667 483 295 493C301.333 503 306.333 513.667 310 525C314 536.333 316 548.5 316 561.5C316 580.833 311.833 599 303.5 616C295.167 633 283.833 647.833 269.5 660.5C255.5 673.167 239.333 683.167 221 690.5C202.667 697.833 183.5 701.5 163.5 701.5C144.5 701.5 126.167 698.333 108.5 692C91.1667 686 75.8333 677.333 62.5 666C49.5 654.333 39 640.5 31 624.5C23.3333 608.5 19.8333 590.5 20.5 570.5C20.5 561.167 22.5 553.333 26.5 547C30.8333 540.333 36 535.5 42 532.5C48.3333 529.167 55 527.667 62 528C69.3333 528 75.8333 529.833 81.5 533.5C87.5 537.167 92.1667 542.667 95.5 550C98.8333 557 100 565.833 99 576.5C99 585.5 100.5 593.5 103.5 600.5C106.833 607.5 111.333 613.5 117 618.5C123 623.167 129.833 626.833 137.5 629.5C145.5 632.167 154 633.5 163 633.5C171 633.5 179 632 187 629C195.333 626 202.667 621.833 209 616.5C215.667 610.833 221 604 225 596C229 587.667 231 578.5 231 568.5C231 553.5 226.5 539.5 217.5 526.5C208.5 513.5 197.833 500.167 185.5 486.5C178.5 478.5 171.5 470.333 164.5 462C157.5 453.667 151.167 445.167 145.5 436.5C140.167 427.5 135.667 418.333 132 409C128.667 399.333 127 389 127 378C127 373.333 127.333 368.667 128 364C129 359 130.333 354 132 349C136 336.333 142 325.167 150 315.5C158 305.833 167.167 297.667 177.5 291C187.833 284.333 199 279.333 211 276C223.333 272.333 235.667 270.5 248 270.5ZM616.844 561C619.51 552 624.677 545.833 632.344 542.5C640.01 539.167 647.677 538.167 655.344 539.5C663.344 540.833 669.844 544.333 674.844 550C679.844 555.333 681.01 562.333 678.344 571C672.01 590.333 664.344 608 655.344 624C646.344 640 636.01 653.667 624.344 665C612.677 676.333 599.677 685 585.344 691C571.01 697.333 555.344 700.5 538.344 700.5C513.677 700.5 495.344 694.5 483.344 682.5C471.344 670.5 465.344 654.833 465.344 635.5C465.344 622.833 467.844 609.667 472.844 596C473.844 593.333 475.01 590.167 476.344 586.5C478.01 582.833 478.01 581.333 476.344 582C474.344 583 471.344 584.167 467.344 585.5C463.677 586.833 459.51 587.667 454.844 588C450.177 588 445.177 587.167 439.844 585.5C434.51 583.5 429.177 579.833 423.844 574.5L390.844 667C387.51 678 381.177 686 371.844 691C362.51 696 353.177 698.167 343.844 697.5C334.51 696.833 326.844 693.167 320.844 686.5C314.51 680.167 313.01 671.167 316.344 659.5L438.344 313.5C441.01 303.833 445.01 296.333 450.344 291C456.01 285.333 462.01 281.667 468.344 280C475.01 278 481.51 278 487.844 280C494.51 281.667 500.01 284.833 504.344 289.5C508.677 294.167 511.51 300.167 512.844 307.5C514.177 314.833 513.01 323.333 509.344 333L481.344 410.5C486.01 408.833 490.344 407.833 494.344 407.5C498.344 406.833 502.677 406.5 507.344 406.5C518.344 406.5 528.344 408.5 537.344 412.5C546.344 416.5 554.01 421.833 560.344 428.5C567.01 435.167 572.177 443 575.844 452C579.51 460.667 581.344 469.833 581.344 479.5C581.344 488.167 579.677 497.167 576.344 506.5C572.677 516.5 567.677 524.833 561.344 531.5C555.344 537.833 548.844 543 541.844 547C545.51 550.667 548.01 555.167 549.344 560.5C551.01 565.5 551.844 571 551.844 577C551.844 584 550.844 591 548.844 598V597.5L541.844 619C540.177 624 539.344 628.5 539.344 632.5C539.344 637.833 542.51 640.5 548.844 640.5C561.51 640.5 573.844 633.667 585.844 620C597.844 606 608.177 586.333 616.844 561ZM443.344 519C447.677 516.667 453.51 515.167 460.844 514.5C468.177 513.833 476.01 514.333 484.344 516C490.344 514.333 495.677 511.5 500.344 507.5C505.344 503.5 509.01 498.667 511.344 493C512.677 490 513.344 486.833 513.344 483.5C513.344 477.833 511.177 473.5 506.844 470.5C502.844 467.167 497.677 465.5 491.344 465.5C484.01 465.5 476.844 468 469.844 473C462.844 477.667 457.01 484.5 452.344 493.5L443.344 519ZM736.551 361C725.217 361 715.551 357 707.551 349C699.551 341 695.551 331.167 695.551 319.5C695.551 308.167 699.551 298.667 707.551 291C715.551 283 725.217 279 736.551 279C747.884 279 757.551 283 765.551 291C773.551 298.667 777.551 308.167 777.551 319.5C777.551 331.167 773.551 341 765.551 349C757.551 357 747.884 361 736.551 361ZM669.051 616C668.051 619 667.551 621.667 667.551 624C667.551 628.667 669.217 632.667 672.551 636C676.217 639.333 680.884 641 686.551 641C691.551 641 696.884 639.667 702.551 637C708.217 634 714.051 629.167 720.051 622.5C726.051 615.833 732.051 607.167 738.051 596.5C744.384 585.5 750.551 571.833 756.551 555.5C759.884 546.167 765.551 539.833 773.551 536.5C781.551 533.167 789.384 532.333 797.051 534C804.717 535.333 810.884 539 815.551 545C820.217 550.667 821.051 558 818.051 567C809.384 593 799.551 614.5 788.551 631.5C777.551 648.5 766.051 662.167 754.051 672.5C742.051 682.833 729.717 690 717.051 694C704.717 698.333 692.384 700.5 680.051 700.5C668.384 700.5 657.384 698.833 647.051 695.5C637.051 692.167 628.051 687.333 620.051 681C612.384 674.667 606.384 667 602.051 658C597.384 648.667 595.051 638.167 595.051 626.5C595.051 622.167 595.717 617 597.051 611C598.051 605 599.384 599.5 601.051 594.5C605.051 582.833 609.217 570.5 613.551 557.5C618.217 544.5 622.884 531.5 627.551 518.5C632.217 505.167 636.717 492 641.051 479C645.717 465.667 650.051 453.167 654.051 441.5C658.717 427.833 665.717 418.333 675.051 413C684.717 407.667 693.884 406 702.551 408C711.217 410 718.051 415.5 723.051 424.5C728.051 433.167 728.384 444.667 724.051 459L669.051 616ZM808.734 619C808.068 620.667 807.568 622.333 807.234 624C806.901 625.333 806.734 626.5 806.734 627.5C806.734 631.167 808.068 634.333 810.734 637C813.401 639.667 817.234 641 822.234 641C833.901 641 846.401 634.333 859.734 621C873.401 607.667 885.901 585.833 897.234 555.5C901.568 544.167 907.734 536.667 915.734 533C923.734 529.333 931.401 528.5 938.734 530.5C946.068 532.5 951.901 536.833 956.234 543.5C960.568 550.167 961.234 558 958.234 567C949.568 593 939.401 614.667 927.734 632C916.401 649 904.401 662.667 891.734 673C879.401 683 866.734 690 853.734 694C840.734 698.333 828.234 700.5 816.234 700.5C805.234 700.5 794.734 698.833 784.734 695.5C774.734 692.5 765.901 688 758.234 682C750.901 676 745.068 668.667 740.734 660C736.401 651 734.234 640.667 734.234 629C734.234 619 736.234 608.167 740.234 596.5L838.234 312C841.234 303 845.401 296 850.734 291C856.401 285.667 862.401 282.167 868.734 280.5C875.068 278.5 881.401 278.167 887.734 279.5C894.068 280.833 899.401 283.667 903.734 288C908.068 292 910.901 297.333 912.234 304C913.901 310.667 913.068 318.5 909.734 327.5L808.734 619ZM948.383 619C947.716 620.667 947.216 622.333 946.883 624C946.549 625.333 946.383 626.5 946.383 627.5C946.383 631.167 947.716 634.333 950.383 637C953.049 639.667 956.883 641 961.883 641C973.549 641 986.049 634.333 999.383 621C1013.05 607.667 1025.55 585.833 1036.88 555.5C1041.22 544.167 1047.38 536.667 1055.38 533C1063.38 529.333 1071.05 528.5 1078.38 530.5C1085.72 532.5 1091.55 536.833 1095.88 543.5C1100.22 550.167 1100.88 558 1097.88 567C1089.22 593 1079.05 614.667 1067.38 632C1056.05 649 1044.05 662.667 1031.38 673C1019.05 683 1006.38 690 993.383 694C980.383 698.333 967.883 700.5 955.883 700.5C944.883 700.5 934.383 698.833 924.383 695.5C914.383 692.5 905.549 688 897.883 682C890.549 676 884.716 668.667 880.383 660C876.049 651 873.883 640.667 873.883 629C873.883 619 875.883 608.167 879.883 596.5L977.883 312C980.883 303 985.049 296 990.383 291C996.049 285.667 1002.05 282.167 1008.38 280.5C1014.72 278.5 1021.05 278.167 1027.38 279.5C1033.72 280.833 1039.05 283.667 1043.38 288C1047.72 292 1050.55 297.333 1051.88 304C1053.55 310.667 1052.72 318.5 1049.38 327.5L948.383 619ZM1285.03 559C1288.36 549.667 1293.86 543.667 1301.53 541C1309.2 538.333 1316.7 538 1324.03 540C1331.7 542 1337.86 545.833 1342.53 551.5C1347.2 556.833 1348.36 563 1346.03 570C1338.03 593 1327.86 612.667 1315.53 629C1303.53 645.333 1289.03 658.833 1272.03 669.5C1255.36 680.167 1236.36 688.167 1215.03 693.5C1193.7 698.833 1169.86 702.167 1143.53 703.5C1139.53 704.167 1134.7 704.667 1129.03 705C1123.36 705.333 1118.53 705.5 1114.53 705.5C1100.2 704.833 1086.53 702.167 1073.53 697.5C1060.86 692.833 1049.7 686.667 1040.03 679C1030.36 671 1022.7 661.833 1017.03 651.5C1011.36 640.833 1008.53 629.333 1008.53 617C1008.53 609 1009.53 600.833 1011.53 592.5C1013.53 584.167 1016.53 576.333 1020.53 569C1024.86 561.667 1030.2 555.333 1036.53 550C1042.86 544.333 1050.2 540.5 1058.53 538.5C1068.53 519.5 1078.7 500.5 1089.03 481.5C1099.36 462.5 1109.36 443.5 1119.03 424.5C1124.7 416.167 1130.53 409.833 1136.53 405.5C1142.53 401.167 1148.36 398.333 1154.03 397C1157.03 396.333 1160.03 395.833 1163.03 395.5C1166.36 395.167 1169.86 395.333 1173.53 396V395.5C1178.86 396.5 1183.86 398.5 1188.53 401.5C1193.2 404.5 1197.03 408.167 1200.03 412.5C1203.03 416.5 1205.2 421.167 1206.53 426.5C1207.86 431.833 1208.2 437.167 1207.53 442.5C1206.2 449.5 1203.36 455.833 1199.03 461.5C1195.03 467.167 1189.7 471.333 1183.03 474C1184.03 481.667 1186.7 489.667 1191.03 498C1195.36 506.333 1200.03 514.833 1205.03 523.5C1212.03 535.167 1218.7 547.833 1225.03 561.5C1231.36 574.833 1234.53 588.833 1234.53 603.5C1234.53 606.833 1234.36 610 1234.03 613C1233.7 616 1233.2 619.167 1232.53 622.5C1255.86 608.833 1273.36 587.667 1285.03 559ZM1126.53 545.5C1133.53 552.5 1137.53 561.167 1138.53 571.5C1139.53 581.5 1137.86 591 1133.53 600C1129.53 608.667 1123.03 615.667 1114.03 621C1105.03 626.333 1094.2 627.667 1081.53 625C1084.2 631.667 1088.86 636.833 1095.53 640.5C1102.53 643.833 1110.36 645.5 1119.03 645.5C1127.7 645.167 1135.2 642.833 1141.53 638.5C1148.2 633.833 1152.86 627 1155.53 618C1159.53 604 1158.7 589.667 1153.03 575C1147.7 560.333 1140.36 547.333 1131.03 536L1126.53 545.5ZM1403.54 361C1392.21 361 1382.54 357 1374.54 349C1366.54 341 1362.54 331.167 1362.54 319.5C1362.54 308.167 1366.54 298.667 1374.54 291C1382.54 283 1392.21 279 1403.54 279C1414.88 279 1424.54 283 1432.54 291C1440.54 298.667 1444.54 308.167 1444.54 319.5C1444.54 331.167 1440.54 341 1432.54 349C1424.54 357 1414.88 361 1403.54 361ZM1336.04 616C1335.04 619 1334.54 621.667 1334.54 624C1334.54 628.667 1336.21 632.667 1339.54 636C1343.21 639.333 1347.88 641 1353.54 641C1358.54 641 1363.88 639.667 1369.54 637C1375.21 634 1381.04 629.167 1387.04 622.5C1393.04 615.833 1399.04 607.167 1405.04 596.5C1411.38 585.5 1417.54 571.833 1423.54 555.5C1426.88 546.167 1432.54 539.833 1440.54 536.5C1448.54 533.167 1456.38 532.333 1464.04 534C1471.71 535.333 1477.88 539 1482.54 545C1487.21 550.667 1488.04 558 1485.04 567C1476.38 593 1466.54 614.5 1455.54 631.5C1444.54 648.5 1433.04 662.167 1421.04 672.5C1409.04 682.833 1396.71 690 1384.04 694C1371.71 698.333 1359.38 700.5 1347.04 700.5C1335.38 700.5 1324.38 698.833 1314.04 695.5C1304.04 692.167 1295.04 687.333 1287.04 681C1279.38 674.667 1273.38 667 1269.04 658C1264.38 648.667 1262.04 638.167 1262.04 626.5C1262.04 622.167 1262.71 617 1264.04 611C1265.04 605 1266.38 599.5 1268.04 594.5C1272.04 582.833 1276.21 570.5 1280.54 557.5C1285.21 544.5 1289.88 531.5 1294.54 518.5C1299.21 505.167 1303.71 492 1308.04 479C1312.71 465.667 1317.04 453.167 1321.04 441.5C1325.71 427.833 1332.71 418.333 1342.04 413C1351.71 407.667 1360.88 406 1369.54 408C1378.21 410 1385.04 415.5 1390.04 424.5C1395.04 433.167 1395.38 444.667 1391.04 459L1336.04 616ZM1454.23 472.5C1452.23 472.5 1450.56 472.667 1449.23 473C1447.89 473 1446.89 473 1446.23 473H1443.73C1435.39 473 1428.89 470 1424.23 464C1419.89 457.667 1418.06 450.833 1418.73 443.5C1419.73 435.833 1423.73 428.833 1430.73 422.5C1437.73 416.167 1448.39 413 1462.73 413H1475.73L1508.23 321C1512.56 308 1518.39 296.667 1525.73 287C1533.06 277.333 1541.23 269.5 1550.23 263.5C1559.56 257.167 1569.39 252.5 1579.73 249.5C1590.39 246.5 1601.06 245 1611.73 245C1624.06 245 1635.39 247.667 1645.73 253C1656.39 258 1665.23 264.833 1672.23 273.5C1679.23 282.167 1684.06 292.5 1686.73 304.5C1689.73 316.167 1689.73 328.667 1686.73 342C1684.73 351.667 1681.06 359.167 1675.73 364.5C1670.73 369.833 1665.06 373.333 1658.73 375C1652.73 376.667 1646.56 376.833 1640.23 375.5C1633.89 373.833 1628.39 371.167 1623.73 367.5C1619.39 363.5 1616.39 358.667 1614.73 353C1613.39 347 1614.39 340.333 1617.73 333C1619.73 326.333 1619.73 320.833 1617.73 316.5C1616.06 312.167 1612.06 309.667 1605.73 309C1601.06 308.667 1596.56 310.333 1592.23 314C1587.89 317.333 1584.73 322.167 1582.73 328.5L1552.73 413H1573.23C1582.56 413 1589.73 415.833 1594.73 421.5C1599.73 427.167 1602.06 433.5 1601.73 440.5C1601.73 447.5 1598.89 454.167 1593.23 460.5C1587.89 466.833 1579.39 470.667 1567.73 472L1531.23 472.5L1395.23 860C1391.89 869.667 1387.39 877 1381.73 882C1376.06 887.333 1370.06 890.667 1363.73 892C1357.39 893.667 1351.06 893.5 1344.73 891.5C1338.39 889.5 1333.06 886.167 1328.73 881.5C1324.39 877.167 1321.56 871.667 1320.23 865C1318.56 858.333 1319.39 850.833 1322.73 842.5L1454.23 472.5ZM1636.38 614.5C1634.72 619.5 1633.88 623.667 1633.88 627C1633.88 636.667 1638.72 641.5 1648.38 641.5C1655.05 641.5 1662.55 638.833 1670.88 633.5C1679.22 627.833 1687.38 618.167 1695.38 604.5L1752.88 436.5C1757.22 423.833 1763.88 415.5 1772.88 411.5C1782.22 407.5 1791.22 406.833 1799.88 409.5C1808.55 411.833 1815.55 417 1820.88 425C1826.22 433 1827.22 442.667 1823.88 454L1799.38 524L1784.38 566.5L1752.88 657C1772.55 647 1790.22 634.167 1805.88 618.5C1821.88 602.5 1834.55 581.667 1843.88 556C1847.88 544.667 1853.88 537 1861.88 533C1870.22 528.667 1878.05 527.333 1885.38 529C1893.05 530.333 1899.05 534.333 1903.38 541C1907.72 547.667 1908.22 556.167 1904.88 566.5C1896.22 592.833 1885.38 615.333 1872.38 634C1859.38 652.333 1844.88 668 1828.88 681C1813.22 693.667 1796.55 704 1778.88 712C1761.22 720.333 1743.38 727.333 1725.38 733C1721.72 743.333 1717.88 753.833 1713.88 764.5C1710.22 775.167 1706.55 785.833 1702.88 796.5C1697.55 811.167 1690.72 823.667 1682.38 834C1674.38 844.667 1665.22 853.5 1654.88 860.5C1644.88 867.5 1633.88 872.667 1621.88 876C1610.22 879.333 1598.22 881 1585.88 881C1571.88 881 1558.55 878.333 1545.88 873C1532.88 868 1521.88 860.833 1512.88 851.5C1503.88 842.5 1497.72 831.667 1494.38 819C1490.72 806.333 1491.05 792.333 1495.38 777C1499.05 765 1505.05 754.667 1513.38 746C1521.72 737.667 1531.38 730.5 1542.38 724.5C1553.38 718.833 1565.05 714.167 1577.38 710.5C1589.72 706.833 1601.72 703.667 1613.38 701C1597.05 697.667 1583.55 690.167 1572.88 678.5C1562.22 666.833 1556.88 652.5 1556.88 635.5C1556.88 630.833 1557.38 626.167 1558.38 621.5C1559.05 616.833 1560.22 612.167 1561.88 607.5L1622.38 436.5C1625.38 427.833 1629.55 421.333 1634.88 417C1640.55 412.333 1646.38 409.5 1652.38 408.5C1658.72 407.5 1664.88 408 1670.88 410C1676.88 412 1681.88 415.333 1685.88 420C1690.22 424.333 1693.05 429.833 1694.38 436.5C1695.72 442.833 1694.88 450 1691.88 458L1636.38 614.5ZM1633.88 756C1617.55 760.333 1603.72 765.167 1592.38 770.5C1581.05 775.833 1573.55 782.833 1569.88 791.5C1569.22 793.167 1568.72 794.833 1568.38 796.5C1568.05 798.5 1567.88 800.333 1567.88 802C1567.88 806.667 1569.22 810.5 1571.88 813.5C1574.55 816.5 1578.72 818 1584.38 818C1592.05 818 1599.22 815.667 1605.88 811C1612.88 806.333 1618.22 799.333 1621.88 790L1633.88 756Z" fill="black"/>
<path d="M1874.41 558.462C1874.26 556.53 1874.54 555.603 1875.75 553.987C1878.97 549.67 1882.56 545.664 1885.71 541.282C1892.17 532.299 1898.35 523.18 1903.72 513.492C1906.45 508.569 1908.75 504.566 1912.71 500.607C1916.32 496.996 1920.05 493.593 1923.71 490.032C1926.57 487.26 1930.49 485.674 1933.68 483.247C1936.48 481.107 1939.28 478.742 1942.34 476.967C1951.7 471.524 1962.16 466.914 1972.87 465.057C1979.1 463.977 1984.59 462.922 1991.06 462.566C2001.87 461.973 2012.57 461.014 2023.4 461.014C2034.54 461.014 2045.68 461.014 2056.82 461.014C2061.68 461.014 2066.43 462.025 2071.26 462.025C2077.29 462.025 2083.29 460.779 2089.2 459.751C2097.05 458.385 2106.78 459.27 2114.13 455.962C2121.27 452.749 2128.14 451.27 2136.08 450.764C2145.53 450.162 2154.15 449.013 2162.82 444.809C2168.72 441.949 2174.57 439.301 2180.54 436.58C2185.98 434.103 2191.18 431.241 2196.86 429.326C2199.3 428.5 2201.11 428.28 2203.32 426.763C2209.61 422.436 2216.17 418.824 2222.99 415.395C2228.71 412.517 2234.66 410.168 2239.73 406.227C2249.38 398.737 2258.95 390.894 2268.1 382.84C2274.56 377.158 2281.43 371.674 2287.52 365.588C2290.69 362.419 2294.34 355.771 2299.28 355.771" stroke="black" stroke-width="50" stroke-linecap="round"/>
<path d="M2616 208C2616 311.135 2531.75 395 2427.5 395C2323.25 395 2239 311.135 2239 208C2239 104.865 2323.25 21 2427.5 21C2531.75 21 2616 104.865 2616 208Z" fill="none" stroke="black" stroke-width="42"/>
<path d="M2367.2 263.4C2370.13 266.867 2371.27 270.267 2370.6 273.6C2369.93 276.933 2368.27 279.533 2365.6 281.4C2362.93 283.4 2359.6 284.267 2355.6 284C2351.73 283.733 2348.07 281.8 2344.6 278.2C2341.4 274.733 2337.87 271 2334 267C2330.27 262.867 2326.4 258.733 2322.4 254.6C2318.53 250.467 2314.67 246.4 2310.8 242.4C2307.07 238.4 2303.6 234.667 2300.4 231.2C2299.6 230.267 2299.2 229.267 2299.2 228.2C2299.2 227 2299.6 226 2300.4 225.2L2342.8 179.8C2346.53 175.133 2350.33 172.533 2354.2 172C2358.2 171.333 2361.53 172 2364.2 174C2366.87 175.867 2368.53 178.667 2369.2 182.4C2369.87 186.133 2368.87 190 2366.2 194L2334.2 228.2L2367.2 263.4ZM2405.93 283.15C2404.13 286.25 2401.63 288.25 2398.43 289.15C2395.33 290.15 2392.48 290.2 2389.88 289.3C2387.28 288.4 2385.48 286.6 2384.48 283.9C2383.48 281.2 2384.23 277.75 2386.73 273.55L2463.53 152.2C2465.23 149.4 2467.58 147.65 2470.58 146.95C2473.58 146.15 2476.33 146.25 2478.83 147.25C2481.43 148.15 2483.28 149.9 2484.38 152.5C2485.48 155 2484.93 158.1 2482.73 161.8L2405.93 283.15ZM2522.95 228.2L2491.15 194C2489.28 191.333 2488.22 188.733 2487.95 186.2C2487.68 183.533 2488.02 181.133 2488.95 179C2489.88 176.867 2491.22 175.133 2492.95 173.8C2494.82 172.467 2496.88 171.733 2499.15 171.6C2501.55 171.467 2504.02 172.067 2506.55 173.4C2509.22 174.6 2511.82 176.733 2514.35 179.8L2556.95 225.2C2557.75 226 2558.15 227 2558.15 228.2C2558.15 229.267 2557.75 230.267 2556.95 231.2C2553.75 234.667 2550.22 238.4 2546.35 242.4C2542.62 246.4 2538.75 250.467 2534.75 254.6C2530.88 258.733 2527.02 262.867 2523.15 267C2519.42 271 2515.95 274.733 2512.75 278.2C2509.15 281.8 2505.35 283.733 2501.35 284C2497.48 284.267 2494.22 283.4 2491.55 281.4C2488.88 279.533 2487.22 276.933 2486.55 273.6C2485.88 270.267 2487.08 266.867 2490.15 263.4L2522.95 228.2Z" fill="black"/>
</svg>
